<svg width="640" height="720" viewBox="0 0 640 720" fill="none" xmlns="http://www.w3.org/2000/svg">
  <rect width="640" height="720" fill="#080808"/>
  <circle cx="525" cy="150" r="150" fill="#D81921" fill-opacity="0.28"/>
  <circle cx="120" cy="590" r="160" fill="#A70E14" fill-opacity="0.35"/>
  <path d="M179 699C193 575 245 466 319 466C394 466 447 575 461 699H179Z" fill="#F5F1EC"/>
  <path d="M223 340C223 278 266 231 319 231C373 231 416 278 416 340V395C416 461 373 513 319 513C266 513 223 461 223 395V340Z" fill="#E9C1AB"/>
  <path d="M225 274C230 214 272 163 328 163C384 163 428 208 433 268L437 316H394L378 284L360 316H221L225 274Z" fill="#111111"/>
  <path d="M241 319C258 292 287 276 318 276H339C367 276 393 290 409 315L422 336H225L241 319Z" fill="#D81921"/>
  <rect x="216" y="513" width="206" height="38" rx="19" fill="#D81921"/>
  <path d="M271 393C288 407 305 414 320 414C336 414 352 407 368 393" stroke="#7C4B3A" stroke-width="8" stroke-linecap="round"/>
  <circle cx="280" cy="348" r="10" fill="#111111"/>
  <circle cx="359" cy="348" r="10" fill="#111111"/>
</svg>
