<svg width="640" height="720" viewBox="0 0 640 720" fill="none" xmlns="http://www.w3.org/2000/svg">
  <rect width="640" height="720" fill="#0B0B0B"/>
  <circle cx="500" cy="110" r="120" fill="#911117" fill-opacity="0.65"/>
  <circle cx="150" cy="650" r="170" fill="#D81921" fill-opacity="0.18"/>
  <path d="M180 699C193 578 245 468 319 468C393 468 446 578 458 699H180Z" fill="#F5F1EC"/>
  <path d="M221 341C221 279 266 230 320 230C374 230 419 279 419 341V395C419 462 374 515 320 515C266 515 221 462 221 395V341Z" fill="#F2D3C1"/>
  <path d="M246 226C264 179 295 156 333 156C385 156 430 203 430 280V312H387L364 260L350 312H235V280C235 260 239 242 246 226Z" fill="#111111"/>
  <path d="M259 300C269 284 285 275 303 275H337C357 275 375 286 385 304L399 329H241L259 300Z" fill="#D81921"/>
  <rect x="218" y="520" width="204" height="36" rx="18" fill="#D81921"/>
  <path d="M271 393C287 409 304 417 321 417C338 417 354 409 369 393" stroke="#7C4A3C" stroke-width="8" stroke-linecap="round"/>
  <circle cx="280" cy="350" r="10" fill="#111111"/>
  <circle cx="359" cy="350" r="10" fill="#111111"/>
</svg>
